HIERARCHY
ROOT Hips
{
  OFFSET 57.8838 95.319 338.509
  CHANNELS 6 Xposition Yposition Zposition Zrotation Xrotation Yrotation
  JOINT LeftUpLeg
  {
    OFFSET 8.64259 1.95398 -2.38835
    CHANNELS 3 Zrotation Xrotation Yrotation
    JOINT LeftLeg
    {
      OFFSET 43.7702 0 0
      CHANNELS 3 Zrotation Xrotation Yrotation
      JOINT LeftFoot
      {
        OFFSET 40.6238 0 0
        CHANNELS 3 Zrotation Xrotation Yrotation
        JOINT LeftToeBase
        {
          OFFSET 12.7242 0 0
          CHANNELS 3 Zrotation Xrotation Yrotation
          End Site
          {
            OFFSET 0 0 0
          }
        }
      }
    }
  }
  JOINT RightUpLeg
  {
    OFFSET -8.2249 1.95398 -2.59336
    CHANNELS 3 Zrotation Xrotation Yrotation
    JOINT RightLeg
    {
      OFFSET 43.5653 0 0
      CHANNELS 3 Zrotation Xrotation Yrotation
      JOINT RightFoot
      {
        OFFSET 40.6238 0 0
        CHANNELS 3 Zrotation Xrotation Yrotation
        JOINT RightToeBase
        {
          OFFSET 12.7242 0 0
          CHANNELS 3 Zrotation Xrotation Yrotation
          End Site
          {
            OFFSET 0 0 0
          }
        }
      }
    }
  }
  JOINT Spine
  {
    OFFSET 0.165834 0.87714 6.61349
    CHANNELS 3 Zrotation Xrotation Yrotation
    JOINT Spine1
    {
      OFFSET 7.38963 1.71661e-005 0
      CHANNELS 3 Zrotation Xrotation Yrotation
      JOINT Spine2
      {
        OFFSET 11.9445 1.14441e-005 0
        CHANNELS 3 Zrotation Xrotation Yrotation
        JOINT Spine3
        {
          OFFSET 14.7254 4.19617e-005 0
          CHANNELS 3 Zrotation Xrotation Yrotation
          JOINT Spine4
          {
            OFFSET 10.9679 0 0
            CHANNELS 3 Zrotation Xrotation Yrotation
            JOINT RightShoulder
            {
              OFFSET 2.46616 -1.6653 3.69651
              CHANNELS 3 Zrotation Xrotation Yrotation
              JOINT RightArm
              {
                OFFSET 13.0012 0 0
                CHANNELS 3 Zrotation Xrotation Yrotation
                JOINT RightForeArm
                {
                  OFFSET 28.7848 1.62311e-005 0
                  CHANNELS 3 Zrotation Xrotation Yrotation
                  JOINT RightHand
                  {
                    OFFSET 26.5688 1.62095e-005 0
                    CHANNELS 3 Zrotation Xrotation Yrotation
                    End Site
                    {
                      OFFSET 0 0 0
                    }
                  }
                }
              }
            }
            JOINT LeftShoulder
            {
              OFFSET 2.38034 -1.29275 -3.7523
              CHANNELS 3 Zrotation Xrotation Yrotation
              JOINT LeftArm
              {
                OFFSET 16.3182 6.07031e-005 0
                CHANNELS 3 Zrotation Xrotation Yrotation
                JOINT LeftForeArm
                {
                  OFFSET 27.0901 0 0
                  CHANNELS 3 Zrotation Xrotation Yrotation
                  JOINT LeftHand
                  {
                    OFFSET 24.5451 1.51738e-005 0
                    CHANNELS 3 Zrotation Xrotation Yrotation
                    End Site
                    {
                      OFFSET 0 0 0
                    }
                  }
                }
              }
            }
            JOINT Neck
            {
              OFFSET 5.0226 -0.0266342 0
              CHANNELS 3 Zrotation Xrotation Yrotation
              JOINT Head
              {
                OFFSET 6.69364 2.86102e-005 0
                CHANNELS 3 Zrotation Xrotation Yrotation
                End Site
                {
                  OFFSET 0 0 0
                }
              }
            }
          }
        }
      }
    }
  }
}
MOTION
Frames:	7
Frame Time:	0.0416667
-18.0334 93.6152 7.34289 105.253 47.2333 79.5099 176.836 24.2092 87.9873 -18.5211 12.3344 0.396021 50.2319 -9.6011 4.52091 48.4566 9.85166 12.9244 174.469 -14.2594 96.809 -43.0383 -8.72495 -2.00697 64.3483 -1.96458 7.37613 32.1271 -4.54306 -2.42934 0.825809 7.39475 -89.9374 12.0845 1.671 -0.0594448 0.414543 1.66676 -0.13296 -22.1282 1.61159 0.445636 -2.11559 1.61158 0.445623 99.0538 -48.4438 -86.9306 30.9238 -20.693 4.75524 -3.32589 4.45098 -47.8608 -11.5432 -0.0216709 -5.16006 -81.6715 -51.8191 91.4009 -7.60457 2.22244 16.673 26.3977 53.3065 -53.9216 4.00914 -0.798996 -17.0557 12.7481 -2.0616 -1.96103 -25.6024 -2.33525 3.95177 
-2.80685 90.4579 -8.03085 107.777 43.52 80.2681 179.972 25.8216 89.1328 -30.6463 16.7103 -0.192763 50.8358 -10.4742 2.73007 42.4528 6.04827 6.44466 173.274 -12.2595 95.758 -65.8144 -3.21944 -3.43537 63.2279 -2.85012 3.23316 31.6489 -3.91172 -3.0584 0.921821 7.68674 -90.1732 11.5055 1.75304 -0.524193 -0.164438 1.72828 -0.600876 -22.7091 1.8295 0.0270568 -2.69645 1.82952 0.0270685 98.1972 -48.9365 -88.2481 30.7703 -24.5121 1.65374 -9.56113 2.48032 -52.1499 -10.1849 -0.0307334 -5.05179 -81.7184 -49.0163 91.1292 -8.9772 3.01952 20.7376 31.8751 51.7023 -59.0983 2.7573 -0.706817 -18.0624 15.3535 -0.979372 -2.78499 -25.7543 -1.37358 5.60401 
10.8243 85.3145 -21.7487 114.042 42.0577 71.2311 -175.338 22.0975 80.9787 -58.2201 21.4056 -0.0479273 58.8521 6.95063 21.7591 45.9792 7.33624 2.80359 171.114 2.89032 89.5782 -91.6575 -8.0361 -3.80416 63.3106 -5.6433 -4.55526 37.6885 -12.6144 -4.38637 0.279447 8.65685 -89.5025 9.55314 0.781607 0.917856 -2.11791 0.821253 0.882571 -24.6511 0.469654 1.11033 -4.6385 0.46966 1.11031 97.2346 -51.246 -89.5378 31.526 -17.8958 -2.69413 -9.71046 -3.59933 -48.1167 -16.8361 -0.67788 -0.602986 -82.0354 -52.5609 90.9188 -4.93062 -3.79557 6.40879 29.5675 57.8372 -51.7532 2.7393 -0.616418 -15.9642 18.7767 0.178088 -6.80656 -23.3145 0.333668 10.1263 
23.302 87.1226 -33.8243 114.616 44.4365 72.5308 -175.036 11.8874 83.6879 -63.1123 22.9396 1.9098 60.9727 9.64732 20.7673 57.1411 13.3215 7.63951 170.66 21.5972 95.4531 -83.0791 -5.6028 -1.99493 66.943 -7.86347 0.934522 40.268 -16.9555 -6.88794 -0.333138 8.63982 -89.6562 9.59747 -0.508877 0.722469 -2.07369 -0.47658 0.744162 -24.608 -0.702486 0.536142 -4.59535 -0.702473 0.536144 97.1286 -52.6087 -89.5689 33.8573 -14.6003 1.85324 -6.98782 -7.20076 -39.7877 -21.0788 -0.986751 0.170881 -81.864 -54.3614 91.2993 -9.21938 -11.7406 -10.7206 58.8776 64.8434 -71.8346 3.63596 -0.481013 -12.1435 13.1336 1.6942 -7.45929 -22.2017 1.45844 11.8365 
35.8461 91.8208 -45.8906 116.139 50.0816 72.7208 -178.784 5.34563 87.3939 -64.6458 21.2806 5.2006 55.4244 -2.78861 6.26869 48.9388 9.65837 10.0179 173.815 24.6027 94.3298 -45.107 -4.03146 0.364992 67.6353 -2.40161 8.87319 37.8417 -13.6715 -8.3992 -0.903593 8.45947 -90.0159 9.95781 -1.80804 0.117629 -1.71187 -1.8011 0.197113 -24.2569 -1.7598 -0.431377 -4.24423 -1.75978 -0.431365 96.9042 -52.0147 -89.9654 34.7893 -14.1919 11.5836 -7.12437 -8.72933 -36.0361 -16.6689 -0.503323 -1.68171 -81.5707 -53.4572 91.6609 -8.54651 0.0463696 -12.6112 28.2289 35.0375 -58.0626 7.88716 -0.973293 -14.0279 10.9533 2.26588 -7.01647 -23.6638 1.7123 11.4153 
48.9792 91.2941 -58.7117 117.542 51.6385 70.3128 178.376 4.19231 85.2801 -70.6612 14.5642 6.27497 54.8817 -0.969255 9.2416 46.4037 8.90708 14.2074 174.149 24.8732 91.8389 -34.2859 -2.8927 1.58654 66.3059 4.15029 12.7164 34.0462 -7.70878 -7.40785 -0.734425 8.2583 -90.0072 10.3587 -1.46638 0.113341 -1.31145 -1.45997 0.177772 -23.853 -1.43264 -0.332702 -3.84039 -1.43265 -0.332706 96.9276 -49.1239 -90.2257 36.4927 -11.7827 20.9684 -7.48987 -7.51059 -36.8684 -12.0124 -0.175219 -3.60925 -81.4583 -51.9748 91.7286 -2.00009 16.6364 -9.21057 16.7412 5.29255 -78.1664 8.10316 -0.967952 -13.9192 8.82229 0.906835 -5.74193 -22.9708 0.259867 10.1848 
61.3065 86.0569 -70.3057 126.355 49.7143 65.9535 -179.387 8.65039 86.5363 -85.1404 8.93999 6.61762 58.6621 5.30586 14.7969 49.5284 10.7407 14.7425 169.411 22.1803 95.7706 -53.7184 -19.5 4.16192 61.4662 -0.984737 -6.44938 28.1998 0.599542 2.78462 -0.347187 8.95647 -90.4688 8.96337 -0.901557 -0.872471 -2.70745 -0.939109 -0.831953 -25.2422 -0.597691 -1.10308 -5.2296 -0.597673 -1.10308 96.5361 -47.7673 -90.9966 32.0756 -14.6161 16.7699 -6.59852 -10.4409 -31.3389 -11.5887 -0.308165 -2.1398 -81.5265 -53.8487 91.7512 -3.43684 18.059 -4.34467 19.9989 -3.02658 -91.5461 21.1498 -1.6707 -12.0911 8.79199 0.210196 -3.28093 -19.0428 -0.287381 8.08906 
